<?xml version="1.0" encoding="utf-8"?>
<!-- Generator: Adobe Illustrator 24.1.2, SVG Export Plug-In . SVG Version: 6.00 Build 0)  -->
<svg version="1.1" id="Capa_1" xmlns="http://www.w3.org/2000/svg" xmlns:xlink="http://www.w3.org/1999/xlink" x="0px" y="0px"
	 viewBox="0 0 563 61.82" style="enable-background:new 0 0 563 61.82;" xml:space="preserve">
<style type="text/css">
	.st0{fill:#F28D0D;}
	.st1{fill:#706F6F;}
</style>
<g>
	<g>
		<path class="st0" d="M5.02,19.47c-1.74,0-3.32-0.69-4.5-1.8v41.21h9V17.68C8.34,18.79,6.76,19.47,5.02,19.47z"/>
		<path class="st0" d="M10.04,9.76c0,2.82-2.25,5.1-5.02,5.1C2.25,14.86,0,12.58,0,9.76c0-2.82,2.25-5.1,5.02-5.1
			C7.8,4.66,10.04,6.95,10.04,9.76z"/>
		<path class="st0" d="M16.87,17.43h8.53v6.09l0.16,0.16c1.37-2.3,3.16-4.1,5.37-5.41c2.21-1.31,4.66-1.96,7.34-1.96
			c4.47,0,8,1.18,10.58,3.53c2.58,2.35,3.87,5.88,3.87,10.59v28.47h-9V32.82c-0.11-3.26-0.79-5.63-2.05-7.1
			c-1.26-1.47-3.24-2.21-5.92-2.21c-1.53,0-2.9,0.28-4.11,0.84c-1.21,0.56-2.24,1.34-3.08,2.33c-0.84,0.99-1.5,2.15-1.97,3.49
			c-0.47,1.34-0.71,2.75-0.71,4.25v24.46h-9V17.43z"/>
		<path class="st0" d="M55.72,17.43h6.71v-3.45c0-2.62,0.32-4.74,0.95-6.38c0.63-1.63,1.47-2.89,2.53-3.77
			c1.05-0.88,2.25-1.47,3.59-1.76c1.34-0.29,2.75-0.44,4.23-0.44c2.89,0,5,0.19,6.32,0.56v7.14c-0.58-0.16-1.2-0.28-1.86-0.36
			c-0.66-0.08-1.44-0.12-2.33-0.12c-1.21,0-2.25,0.29-3.12,0.88c-0.87,0.59-1.3,1.74-1.3,3.45v4.25h7.66v6.82h-7.66v34.64h-9V24.24
			h-6.71V17.43z"/>
		<path class="st0" d="M100.89,60.01c-3.26,0-6.17-0.55-8.73-1.64c-2.55-1.09-4.71-2.61-6.48-4.53c-1.76-1.92-3.11-4.22-4.03-6.9
			c-0.92-2.67-1.38-5.61-1.38-8.82c0-3.15,0.46-6.07,1.38-8.74c0.92-2.67,2.26-4.97,4.03-6.9c1.76-1.92,3.92-3.43,6.48-4.53
			c2.55-1.1,5.46-1.64,8.73-1.64c3.26,0,6.17,0.55,8.73,1.64c2.55,1.1,4.71,2.61,6.48,4.53c1.76,1.92,3.11,4.22,4.03,6.9
			c0.92,2.67,1.38,5.59,1.38,8.74c0,3.21-0.46,6.15-1.38,8.82c-0.92,2.67-2.26,4.97-4.03,6.9c-1.76,1.92-3.92,3.44-6.48,4.53
			C107.06,59.46,104.15,60.01,100.89,60.01z M100.89,52.79c2,0,3.74-0.43,5.21-1.28c1.47-0.85,2.69-1.98,3.63-3.37
			c0.95-1.39,1.64-2.95,2.09-4.69c0.45-1.74,0.67-3.51,0.67-5.33c0-1.76-0.22-3.53-0.67-5.29c-0.45-1.76-1.15-3.33-2.09-4.69
			c-0.95-1.36-2.16-2.47-3.63-3.33c-1.47-0.85-3.21-1.28-5.21-1.28c-2,0-3.74,0.43-5.21,1.28c-1.48,0.86-2.69,1.96-3.63,3.33
			c-0.95,1.36-1.65,2.93-2.09,4.69c-0.45,1.76-0.67,3.53-0.67,5.29c0,1.82,0.22,3.6,0.67,5.33c0.45,1.74,1.15,3.3,2.09,4.69
			c0.95,1.39,2.16,2.51,3.63,3.37C97.15,52.36,98.89,52.79,100.89,52.79z"/>
		<path class="st0" d="M126.79,1.63h9V22.8h0.16c0.63-1.01,1.39-1.92,2.29-2.73c0.89-0.8,1.88-1.48,2.96-2.05
			c1.08-0.56,2.21-0.99,3.4-1.28c1.19-0.29,2.36-0.44,3.51-0.44c3.21,0,6.01,0.58,8.41,1.72c2.39,1.15,4.38,2.73,5.96,4.73
			c1.58,2,2.76,4.34,3.55,7.02c0.79,2.67,1.18,5.53,1.18,8.58c0,2.78-0.35,5.48-1.07,8.1c-0.71,2.62-1.79,4.93-3.24,6.94
			c-1.45,2-3.28,3.61-5.49,4.81c-2.21,1.2-4.82,1.8-7.82,1.8c-1.37,0-2.75-0.09-4.15-0.28c-1.4-0.19-2.72-0.55-3.99-1.08
			c-1.26-0.53-2.41-1.23-3.43-2.08c-1.03-0.85-1.88-1.98-2.57-3.37h-0.16v5.69h-8.53V1.63z M158.22,38.2c0-1.87-0.24-3.69-0.71-5.45
			c-0.47-1.76-1.19-3.33-2.13-4.69c-0.95-1.36-2.13-2.46-3.55-3.29c-1.42-0.83-3.05-1.24-4.9-1.24c-3.79,0-6.65,1.34-8.57,4.01
			c-1.92,2.67-2.88,6.23-2.88,10.67c0,2.09,0.25,4.02,0.75,5.81c0.5,1.79,1.25,3.33,2.25,4.61c1,1.28,2.2,2.3,3.59,3.05
			c1.39,0.75,3.01,1.12,4.86,1.12c2.05,0,3.79-0.43,5.21-1.28c1.42-0.85,2.59-1.96,3.51-3.33c0.92-1.36,1.58-2.91,1.97-4.65
			C158.02,41.79,158.22,40.01,158.22,38.2z"/>
		<path class="st0" d="M206.55,49.66c0,1.12,0.15,1.92,0.44,2.41c0.29,0.48,0.85,0.72,1.7,0.72c0.26,0,0.58,0,0.95,0
			c0.37,0,0.79-0.05,1.26-0.16v6.33c-0.32,0.11-0.72,0.23-1.22,0.36c-0.5,0.13-1.01,0.25-1.54,0.36c-0.53,0.11-1.05,0.19-1.58,0.24
			c-0.53,0.05-0.97,0.08-1.34,0.08c-1.84,0-3.37-0.37-4.58-1.12c-1.21-0.75-2-2.06-2.37-3.93c-1.79,1.76-3.99,3.05-6.59,3.85
			c-2.61,0.8-5.12,1.2-7.54,1.2c-1.84,0-3.61-0.25-5.29-0.76c-1.69-0.51-3.17-1.26-4.46-2.25c-1.29-0.99-2.32-2.25-3.08-3.77
			c-0.76-1.52-1.15-3.3-1.15-5.33c0-2.57,0.46-4.65,1.38-6.25c0.92-1.6,2.13-2.86,3.63-3.77c1.5-0.91,3.19-1.56,5.05-1.96
			c1.87-0.4,3.75-0.71,5.65-0.92c1.63-0.32,3.19-0.55,4.66-0.68c1.47-0.13,2.78-0.36,3.91-0.68c1.13-0.32,2.03-0.81,2.69-1.48
			c0.66-0.67,0.99-1.67,0.99-3.01c0-1.18-0.28-2.14-0.83-2.89c-0.55-0.75-1.24-1.32-2.05-1.72c-0.82-0.4-1.73-0.67-2.73-0.8
			c-1-0.13-1.95-0.2-2.84-0.2c-2.53,0-4.61,0.54-6.24,1.6c-1.63,1.07-2.55,2.73-2.76,4.97h-9c0.16-2.67,0.79-4.89,1.9-6.66
			c1.11-1.76,2.51-3.18,4.23-4.25c1.71-1.07,3.65-1.82,5.81-2.25c2.16-0.43,4.37-0.64,6.63-0.64c2,0,3.97,0.21,5.92,0.64
			c1.95,0.43,3.7,1.12,5.25,2.08c1.55,0.96,2.8,2.21,3.75,3.73c0.95,1.52,1.42,3.38,1.42,5.57V49.66z M197.55,38.12
			c-1.37,0.91-3.05,1.46-5.05,1.64c-2,0.19-4,0.47-6,0.84c-0.95,0.16-1.87,0.39-2.76,0.68c-0.9,0.29-1.69,0.7-2.37,1.2
			c-0.68,0.51-1.22,1.18-1.62,2.01c-0.39,0.83-0.59,1.83-0.59,3.01c0,1.02,0.29,1.87,0.87,2.57c0.58,0.69,1.28,1.24,2.09,1.64
			c0.82,0.4,1.71,0.68,2.68,0.84c0.97,0.16,1.86,0.24,2.64,0.24c1,0,2.08-0.13,3.24-0.4c1.16-0.27,2.25-0.72,3.28-1.36
			c1.03-0.64,1.88-1.46,2.57-2.45c0.68-0.99,1.03-2.21,1.03-3.65V38.12z"/>
		<path class="st0" d="M220.85,40.52c0,1.6,0.22,3.16,0.67,4.65c0.45,1.5,1.12,2.81,2.01,3.93c0.9,1.12,2.03,2.02,3.4,2.69
			c1.37,0.67,3,1,4.9,1c2.63,0,4.75-0.57,6.36-1.72c1.61-1.15,2.8-2.87,3.59-5.17h8.53c-0.47,2.25-1.29,4.25-2.45,6.01
			c-1.16,1.76-2.55,3.25-4.19,4.45c-1.63,1.2-3.46,2.11-5.49,2.73c-2.03,0.61-4.14,0.92-6.36,0.92c-3.21,0-6.05-0.53-8.53-1.6
			c-2.47-1.07-4.57-2.57-6.28-4.49c-1.71-1.92-3-4.22-3.87-6.9c-0.87-2.67-1.3-5.61-1.3-8.82c0-2.94,0.46-5.73,1.38-8.38
			c0.92-2.65,2.24-4.97,3.95-6.98c1.71-2,3.78-3.59,6.2-4.77c2.42-1.18,5.16-1.76,8.21-1.76c3.21,0,6.09,0.68,8.65,2.04
			c2.55,1.36,4.67,3.17,6.36,5.41c1.68,2.25,2.91,4.83,3.67,7.74c0.76,2.91,0.96,5.92,0.59,9.02H220.85z M241.85,34.51
			c-0.11-1.44-0.41-2.83-0.91-4.17c-0.5-1.34-1.18-2.5-2.05-3.49c-0.87-0.99-1.92-1.79-3.16-2.41c-1.24-0.61-2.62-0.92-4.15-0.92
			c-1.58,0-3.01,0.28-4.3,0.84c-1.29,0.56-2.4,1.34-3.32,2.33c-0.92,0.99-1.66,2.15-2.21,3.49c-0.55,1.34-0.86,2.78-0.91,4.33
			H241.85z"/>
	</g>
</g>
<g>
	<path d="M293.24,4.34h10.16l21.01,54.55h-10.24l-5.12-14.44h-21.77l-5.12,14.44h-9.86L293.24,4.34z M289.88,37.19h16.65
		l-8.17-23.45h-0.23L289.88,37.19z"/>
	<path d="M328.38,19.39h8.25v5.5h0.23c0.66-0.97,1.38-1.86,2.14-2.67c0.76-0.81,1.62-1.5,2.56-2.06c0.94-0.56,2.02-1,3.25-1.34
		c1.22-0.33,2.62-0.5,4.2-0.5c2.39,0,4.62,0.54,6.69,1.6c2.06,1.07,3.53,2.73,4.39,4.97c1.48-2.04,3.18-3.64,5.12-4.81
		c1.94-1.17,4.35-1.76,7.26-1.76c4.18,0,7.42,1.02,9.74,3.06c2.32,2.04,3.48,5.45,3.48,10.24v27.27h-8.71V35.81
		c0-1.58-0.05-3.02-0.15-4.32c-0.1-1.3-0.4-2.42-0.88-3.36c-0.48-0.94-1.21-1.67-2.18-2.18c-0.97-0.51-2.29-0.76-3.97-0.76
		c-2.95,0-5.09,0.92-6.42,2.75c-1.33,1.83-1.99,4.43-1.99,7.79v23.15h-8.71V33.52c0-2.75-0.5-4.83-1.49-6.23
		c-0.99-1.4-2.81-2.1-5.46-2.1c-1.12,0-2.2,0.23-3.25,0.69c-1.04,0.46-1.96,1.12-2.75,1.99c-0.79,0.87-1.43,1.94-1.91,3.21
		c-0.48,1.27-0.73,2.73-0.73,4.35v23.45h-8.71V19.39z"/>
	<path d="M401.65,41.39c0,1.53,0.22,3.01,0.65,4.43c0.43,1.43,1.08,2.67,1.95,3.74c0.87,1.07,1.96,1.92,3.29,2.56
		c1.32,0.64,2.9,0.96,4.74,0.96c2.55,0,4.6-0.55,6.15-1.64c1.55-1.09,2.71-2.74,3.48-4.93h8.25c-0.46,2.14-1.25,4.05-2.37,5.73
		c-1.12,1.68-2.47,3.09-4.05,4.24c-1.58,1.15-3.35,2.01-5.31,2.6c-1.96,0.58-4.01,0.88-6.15,0.88c-3.11,0-5.86-0.51-8.25-1.53
		c-2.4-1.02-4.42-2.44-6.07-4.28c-1.66-1.83-2.9-4.02-3.74-6.57c-0.84-2.55-1.26-5.35-1.26-8.4c0-2.8,0.45-5.46,1.34-7.98
		c0.89-2.52,2.16-4.74,3.82-6.65c1.65-1.91,3.65-3.42,6-4.55c2.34-1.12,4.99-1.68,7.95-1.68c3.11,0,5.9,0.65,8.37,1.95
		c2.47,1.3,4.52,3.02,6.15,5.16c1.63,2.14,2.81,4.6,3.55,7.37c0.74,2.78,0.93,5.64,0.57,8.6H401.65z M421.97,35.66
		c-0.1-1.38-0.4-2.7-0.88-3.97c-0.48-1.27-1.15-2.38-1.99-3.32c-0.84-0.94-1.86-1.71-3.06-2.29c-1.2-0.58-2.53-0.88-4.01-0.88
		c-1.53,0-2.92,0.27-4.16,0.8c-1.25,0.53-2.32,1.27-3.21,2.22c-0.89,0.94-1.6,2.05-2.14,3.32c-0.54,1.27-0.83,2.65-0.88,4.13H421.97
		z M415.4,2.96h10.31l-10.85,10.92h-6.34L415.4,2.96z"/>
	<path d="M437.33,19.39h8.17v7.64h0.15c0.25-1.07,0.75-2.11,1.49-3.13c0.74-1.02,1.63-1.95,2.67-2.79c1.04-0.84,2.2-1.51,3.48-2.02
		c1.27-0.51,2.57-0.76,3.9-0.76c1.02,0,1.72,0.03,2.1,0.08c0.38,0.05,0.78,0.1,1.18,0.15v8.4c-0.61-0.1-1.24-0.19-1.87-0.27
		c-0.64-0.08-1.26-0.11-1.87-0.11c-1.48,0-2.87,0.29-4.16,0.88c-1.3,0.59-2.43,1.45-3.4,2.6c-0.97,1.15-1.73,2.56-2.29,4.24
		c-0.56,1.68-0.84,3.62-0.84,5.81v18.79h-8.71V19.39z"/>
	<path d="M464.45,4.34h8.71v8.25h-8.71V4.34z M464.45,19.39h8.71v39.5h-8.71V19.39z"/>
	<path d="M509.29,32.6c-0.36-2.44-1.34-4.29-2.94-5.54c-1.6-1.25-3.63-1.87-6.07-1.87c-1.12,0-2.32,0.19-3.59,0.57
		c-1.27,0.38-2.44,1.1-3.51,2.14c-1.07,1.04-1.96,2.5-2.67,4.35c-0.71,1.86-1.07,4.29-1.07,7.3c0,1.63,0.19,3.26,0.57,4.89
		c0.38,1.63,0.99,3.08,1.83,4.35c0.84,1.27,1.92,2.31,3.25,3.09c1.32,0.79,2.93,1.18,4.81,1.18c2.55,0,4.65-0.79,6.3-2.37
		c1.65-1.58,2.69-3.79,3.09-6.65H518c-0.82,5.15-2.76,9.08-5.84,11.8c-3.08,2.73-7.17,4.09-12.26,4.09c-3.11,0-5.84-0.52-8.21-1.57
		s-4.37-2.47-6-4.28c-1.63-1.81-2.86-3.96-3.71-6.46c-0.84-2.5-1.26-5.2-1.26-8.1c0-2.95,0.41-5.73,1.22-8.33
		c0.81-2.6,2.04-4.85,3.67-6.76c1.63-1.91,3.65-3.41,6.07-4.51c2.42-1.09,5.26-1.64,8.52-1.64c2.29,0,4.47,0.29,6.53,0.88
		c2.06,0.59,3.9,1.46,5.5,2.64c1.6,1.17,2.92,2.65,3.93,4.43c1.02,1.78,1.63,3.9,1.83,6.34H509.29z"/>
	<path d="M558.19,50.1c0,1.07,0.14,1.83,0.42,2.29c0.28,0.46,0.83,0.69,1.64,0.69c0.25,0,0.56,0,0.92,0c0.36,0,0.76-0.05,1.22-0.15
		v6.04c-0.31,0.1-0.7,0.22-1.18,0.34c-0.49,0.13-0.98,0.24-1.49,0.34c-0.51,0.1-1.02,0.18-1.53,0.23c-0.51,0.05-0.94,0.08-1.3,0.08
		c-1.79,0-3.26-0.36-4.43-1.07c-1.17-0.71-1.94-1.96-2.29-3.74c-1.73,1.68-3.86,2.9-6.38,3.67c-2.52,0.76-4.95,1.15-7.29,1.15
		c-1.79,0-3.49-0.24-5.12-0.73c-1.63-0.48-3.07-1.2-4.32-2.14c-1.25-0.94-2.24-2.14-2.98-3.59s-1.11-3.14-1.11-5.08
		c0-2.44,0.45-4.43,1.34-5.96s2.06-2.72,3.52-3.59c1.45-0.87,3.08-1.49,4.89-1.87s3.63-0.67,5.46-0.88
		c1.58-0.31,3.08-0.52,4.51-0.65c1.43-0.13,2.69-0.34,3.78-0.65s1.96-0.78,2.6-1.41c0.64-0.64,0.96-1.59,0.96-2.86
		c0-1.12-0.27-2.04-0.8-2.75c-0.53-0.71-1.2-1.26-1.99-1.64s-1.67-0.64-2.63-0.76c-0.97-0.13-1.88-0.19-2.75-0.19
		c-2.45,0-4.46,0.51-6.04,1.53c-1.58,1.02-2.47,2.6-2.67,4.74h-8.71c0.15-2.55,0.76-4.66,1.83-6.34c1.07-1.68,2.43-3.03,4.09-4.05
		c1.65-1.02,3.53-1.73,5.62-2.14c2.09-0.41,4.23-0.61,6.42-0.61c1.94,0,3.85,0.2,5.73,0.61c1.88,0.41,3.58,1.07,5.08,1.99
		c1.5,0.92,2.71,2.1,3.63,3.55c0.92,1.45,1.38,3.22,1.38,5.31V50.1z M549.48,39.1c-1.32,0.87-2.95,1.39-4.89,1.57
		c-1.94,0.18-3.87,0.45-5.81,0.8c-0.92,0.15-1.81,0.37-2.67,0.65c-0.87,0.28-1.63,0.66-2.29,1.15c-0.66,0.48-1.18,1.12-1.56,1.91
		c-0.38,0.79-0.57,1.75-0.57,2.86c0,0.97,0.28,1.78,0.84,2.44c0.56,0.66,1.23,1.18,2.03,1.57c0.79,0.38,1.65,0.65,2.6,0.8
		c0.94,0.15,1.79,0.23,2.56,0.23c0.97,0,2.01-0.13,3.13-0.38c1.12-0.25,2.18-0.69,3.17-1.3c0.99-0.61,1.82-1.39,2.48-2.33
		c0.66-0.94,0.99-2.1,0.99-3.48V39.1z"/>
</g>
<g>
	<rect x="259.88" y="1.63" class="st1" width="2" height="57.26"/>
</g>
</svg>
