<?xml version="1.0" encoding="utf-8"?>
<!-- Generator: Adobe Illustrator 24.1.2, SVG Export Plug-In . SVG Version: 6.00 Build 0)  -->
<svg version="1.1" id="Capa_1" xmlns="http://www.w3.org/2000/svg" xmlns:xlink="http://www.w3.org/1999/xlink" x="0px" y="0px"
	 viewBox="0 0 245 43.2" style="enable-background:new 0 0 245 43.2;" xml:space="preserve">
<style type="text/css">
	.st0{fill:#C92028;}
</style>
<g>
	<g>
		<path class="st0" d="M27.3,8.3h-8.8V42h-8.1V8.3H1.6V1.6h25.8v6.7H27.3z"/>
		<path class="st0" d="M53.5,8.3H39v9.5h13.6v6.7H39v10.9h15v6.7H30.8V1.6h22.6C53.4,1.6,53.4,8.3,53.5,8.3z"/>
		<path class="st0" d="M58,1.6h8.2v33.7h14.4V42H58V1.6z"/>
		<path class="st0" d="M106.8,8.3H92.3v9.5h13.6v6.7H92.3v10.9h15v6.7H84.2V1.6h22.6C106.8,1.6,106.8,8.3,106.8,8.3z"/>
		<path class="st0" d="M118.1,30.5c0,0.9,0.1,1.8,0.2,2.6s0.4,1.4,0.8,2c0.4,0.5,1,0.9,1.7,1.2s1.6,0.5,2.6,0.5
			c1.2,0,2.4-0.4,3.4-1.2s1.5-2.1,1.5-3.8c0-0.9-0.1-1.7-0.4-2.3c-0.2-0.7-0.7-1.3-1.2-1.8c-0.6-0.5-1.3-1-2.2-1.4s-2.1-0.9-3.4-1.3
			c-1.8-0.6-3.4-1.3-4.7-2c-1.3-0.7-2.4-1.6-3.3-2.5c-0.9-1-1.5-2.1-2-3.3c-0.4-1.3-0.6-2.7-0.6-4.4c0-4,1.1-7,3.3-8.9
			c2.2-2,5.3-2.9,9.2-2.9c1.8,0,3.5,0.2,5,0.6c1.5,0.4,2.8,1,4,1.9c1.1,0.9,2,2,2.6,3.4s0.9,3,0.9,4.9v1.1h-7.8c0-1.9-0.3-3.4-1-4.4
			s-1.8-1.6-3.4-1.6c-0.9,0-1.7,0.1-2.3,0.4c-0.6,0.3-1.1,0.6-1.4,1c-0.4,0.4-0.6,0.9-0.7,1.5s-0.2,1.2-0.2,1.8
			c0,1.2,0.3,2.3,0.8,3.1s1.7,1.6,3.4,2.3l6.3,2.7c1.5,0.7,2.8,1.4,3.8,2.1s1.8,1.5,2.3,2.4c0.6,0.8,1,1.8,1.2,2.8s0.3,2.1,0.3,3.4
			c0,4.3-1.2,7.4-3.7,9.3s-5.9,2.9-10.3,2.9c-4.6,0-7.9-1-9.9-3s-3-4.9-3-8.6v-1.6h8.1L118.1,30.5L118.1,30.5z"/>
		<path class="st0" d="M148.9,1.6V17h9.5V1.6h8.1V42h-8.1V24h-9.5v17.9h-8.1V1.6H148.9z"/>
		<path class="st0" d="M171.9,13.3c0.3-2.6,0.9-4.8,1.9-6.6s2.3-3.3,4.2-4.3c1.8-1,4.2-1.6,7.3-1.6s5.5,0.5,7.3,1.6
			c1.8,1,3.2,2.5,4.2,4.3s1.6,4.1,1.9,6.6c0.3,2.6,0.4,5.4,0.4,8.5s-0.1,5.9-0.4,8.5c-0.3,2.6-0.9,4.8-1.9,6.6s-2.3,3.3-4.2,4.2
			c-1.8,1-4.2,1.5-7.3,1.5s-5.5-0.5-7.3-1.5s-3.2-2.4-4.2-4.2s-1.6-4.1-1.9-6.6c-0.3-2.6-0.4-5.4-0.4-8.5
			C171.4,18.7,171.6,15.9,171.9,13.3z M179.8,28.7c0.1,1.9,0.4,3.4,0.8,4.6c0.4,1.2,1,2.1,1.7,2.6s1.7,0.8,2.9,0.8s2.2-0.3,2.9-0.8
			s1.3-1.4,1.7-2.6c0.4-1.2,0.7-2.7,0.8-4.6s0.2-4.2,0.2-6.9s-0.1-5-0.2-6.9c-0.1-1.9-0.4-3.4-0.8-4.6c-0.4-1.2-1-2.1-1.7-2.6
			s-1.7-0.8-2.9-0.8s-2.2,0.3-2.9,0.8s-1.3,1.4-1.7,2.6s-0.7,2.8-0.8,4.6c-0.1,1.9-0.2,4.2-0.2,6.9S179.6,26.8,179.8,28.7z"/>
		<path class="st0" d="M209.1,1.6l4.5,29.9h0.1l4.7-29.9h7.8l4.7,29.9h0.1l4.5-29.9h7.8L235.9,42h-9.1l-4.5-29.3l0,0L217.8,42h-9.1
			l-7.4-40.4C201.3,1.6,209.1,1.6,209.1,1.6z"/>
	</g>
</g>
</svg>
